<svg xmlns="http://www.w3.org/2000/svg" width="29.033" height="22.025" viewBox="0 0 29.033 22.025"><defs><style>.a{fill:none;stroke:#000;}</style></defs><g transform="translate(0.5 -63.5)"><g transform="translate(0 64)"><g transform="translate(0 0)"><path class="a" d="M7.12,65.706c3.847,3.258,10.6,8.991,12.583,10.778a1.172,1.172,0,0,0,1.7,0c1.986-1.789,8.737-7.522,12.584-10.781a.584.584,0,0,0,.082-.806,2.319,2.319,0,0,0-1.833-.9H8.871a2.319,2.319,0,0,0-1.833.9A.584.584,0,0,0,7.12,65.706Z" transform="translate(-6.535 -64)"/><path class="a" d="M27.694,126.466a.581.581,0,0,0-.623.084c-4.267,3.617-9.712,8.253-11.426,9.8a2.365,2.365,0,0,1-3.26,0C10.56,134.7,4.445,129.5.962,126.55A.584.584,0,0,0,0,127v14.687a2.338,2.338,0,0,0,2.336,2.336H25.7a2.338,2.338,0,0,0,2.336-2.336V127A.584.584,0,0,0,27.694,126.466Z" transform="translate(0 -122.994)"/></g></g></g></svg>