<svg xmlns="http://www.w3.org/2000/svg" width="26.01" height="26.01" viewBox="0 0 26.01 26.01"><defs><style>.a{fill:#ca2127;}.b{fill:#fff;}</style></defs><g transform="translate(-4.1 -4.2)"><path class="a" d="M30.11,17.2a13,13,0,1,1-13-13A13.006,13.006,0,0,1,30.11,17.2Z"/><path class="b" d="M71.486,62.008c-3.665.393-7.315,3.212-7.463,7.248-.1,2.463.935,4.31,3.4,4.83a13.146,13.146,0,0,0,.334-1.8,4.8,4.8,0,0,1-1.194-1.7c-.905-5.312,6.432-8.94,10.282-5.23,2.656,2.574.905,10.49-3.383,9.667-4.11-.786,2.01-7.085-1.269-8.324-2.663-1.009-4.08,3.079-2.819,5.1-.742,3.487-2.337,6.773-1.691,11.143,2.1-1.447,2.8-4.221,3.383-7.115,1.053.608,1.617,1.246,2.96,1.343,4.956.364,7.723-4.711,7.048-9.4-.608-4.154-4.956-6.269-9.585-5.772Z" transform="translate(-55.472 -53.454)"/></g></svg>